<svg width="94" height="93" viewBox="0 0 94 93" fill="none" xmlns="http://www.w3.org/2000/svg">
<ellipse cx="47" cy="46.5" rx="47" ry="46.5" fill="#E8DECA"/>
<mask id="path-2-inside-1_18_277" fill="white">
<path d="M0 46.5C0 20.8188 20.8188 0 46.5 0H47.5C73.1812 0 94 20.8188 94 46.5C94 72.1812 73.1812 93 47.5 93H46.5C20.8188 93 0 72.1812 0 46.5Z"/>
</mask>
<path d="M0 46.5M94 46.5M94 46.5M0 46.5M46.5 0V0.5H47.5V0V-0.5H46.5V0ZM94 46.5M47.5 93V92.5H46.5V93V93.5H47.5V93ZM0 46.5M46.5 93V92.5C21.0949 92.5 0.5 71.9051 0.5 46.5H0H-0.5C-0.5 72.4574 20.5426 93.5 46.5 93.5V93ZM94 46.5H93.5C93.5 71.9051 72.9051 92.5 47.5 92.5V93V93.5C73.4574 93.5 94.5 72.4574 94.5 46.5H94ZM47.5 0V0.5C72.9051 0.5 93.5 21.0949 93.5 46.5H94H94.5C94.5 20.5426 73.4574 -0.5 47.5 -0.5V0ZM46.5 0V-0.5C20.5426 -0.5 -0.5 20.5426 -0.5 46.5H0H0.5C0.5 21.0949 21.0949 0.5 46.5 0.5V0Z" fill="#C09A35" mask="url(#path-2-inside-1_18_277)"/>
<path d="M44.665 72V80" stroke="#2C3B22" stroke-width="1.5" stroke-linecap="round"/>
<path d="M44.6648 72C44.6648 72 28.6648 38 44.6648 10C44.6648 10 68.6648 22 68.6648 50C68.6648 60 58.6648 70 44.6648 72Z" fill="#2C3B22"/>
<path d="M44 85.5C45.6569 85.5 47 84.1569 47 82.5C47 80.8431 45.6569 79.5 44 79.5C42.3431 79.5 41 80.8431 41 82.5C41 84.1569 42.3431 85.5 44 85.5Z" fill="#C09A35"/>
<path d="M44 79.5V42.5" stroke="#C09A35" stroke-width="1.5" stroke-linecap="round"/>
<path d="M44 56.5L22 36.5" stroke="#C09A35" stroke-width="1.2" stroke-linecap="round"/>
<path opacity="0.7" d="M44 44.5L30 24.5" stroke="#C09A35" stroke-linecap="round"/>
<path d="M44 52.5L64 32.5" stroke="#C09A35" stroke-width="1.2" stroke-linecap="round"/>
<path opacity="0.7" d="M44 42.5L56 22.5" stroke="#C09A35" stroke-linecap="round"/>
<path opacity="0.6" d="M22 38.5C23.1046 38.5 24 37.6046 24 36.5C24 35.3954 23.1046 34.5 22 34.5C20.8954 34.5 20 35.3954 20 36.5C20 37.6046 20.8954 38.5 22 38.5Z" fill="#C09A35"/>
<path opacity="0.5" d="M30 26C30.8284 26 31.5 25.3284 31.5 24.5C31.5 23.6716 30.8284 23 30 23C29.1716 23 28.5 23.6716 28.5 24.5C28.5 25.3284 29.1716 26 30 26Z" fill="#C09A35"/>
<path opacity="0.6" d="M44 44.5C45.1046 44.5 46 43.6046 46 42.5C46 41.3954 45.1046 40.5 44 40.5C42.8954 40.5 42 41.3954 42 42.5C42 43.6046 42.8954 44.5 44 44.5Z" fill="#C09A35"/>
<path opacity="0.6" d="M64 34.5C65.1046 34.5 66 33.6046 66 32.5C66 31.3954 65.1046 30.5 64 30.5C62.8954 30.5 62 31.3954 62 32.5C62 33.6046 62.8954 34.5 64 34.5Z" fill="#C09A35"/>
<path opacity="0.5" d="M56 24C56.8284 24 57.5 23.3284 57.5 22.5C57.5 21.6716 56.8284 21 56 21C55.1716 21 54.5 21.6716 54.5 22.5C54.5 23.3284 55.1716 24 56 24Z" fill="#C09A35"/>
</svg>
