<svg width="159" height="160" viewBox="0 0 159 160" fill="none" xmlns="http://www.w3.org/2000/svg">
<mask id="path-1-inside-1_18_501" fill="white">
<path d="M0 80C0 36.0934 35.5934 0 79.5 0C123.407 0 159 36.0934 159 80C159 123.907 123.407 160 79.5 160C35.5934 160 0 123.907 0 80Z"/>
</mask>
<path d="M0 80M159 80M159 80M0 80M79.5 0M159 80M79.5 160M0 80M79.5 160V159.5C35.8736 159.5 0.5 123.635 0.5 80H0H-0.5C-0.5 124.179 35.3132 160.5 79.5 160.5V160ZM159 80H158.5C158.5 123.635 123.126 159.5 79.5 159.5V160V160.5C123.687 160.5 159.5 124.179 159.5 80H159ZM79.5 0V0.5C123.126 0.5 158.5 36.3654 158.5 80H159H159.5C159.5 35.8213 123.687 -0.5 79.5 -0.5V0ZM79.5 0V-0.5C35.3132 -0.5 -0.5 35.8213 -0.5 80H0H0.5C0.5 36.3654 35.8736 0.5 79.5 0.5V0Z" fill="#C09A35" mask="url(#path-1-inside-1_18_501)"/>
<path d="M80.0166 123.564V137.292" stroke="#2C3B22" stroke-width="1.5" stroke-linecap="round"/>
<path d="M80.0166 123.563C80.0166 123.563 51.4208 65.2187 80.0166 17.1701C80.0166 17.1701 122.91 37.7624 122.91 85.811C122.91 102.971 105.038 120.131 80.0166 123.563Z" fill="#2C3B22"/>
<path d="M78.8281 146.73C81.7893 146.73 84.1898 144.425 84.1898 141.582C84.1898 138.739 81.7893 136.434 78.8281 136.434C75.8669 136.434 73.4664 138.739 73.4664 141.582C73.4664 144.425 75.8669 146.73 78.8281 146.73Z" fill="#C09A35"/>
<path d="M78.8282 136.434V72.9408" stroke="#C09A35" stroke-width="1.5" stroke-linecap="round"/>
<path d="M78.8282 96.9652L39.509 62.6447" stroke="#C09A35" stroke-width="1.2" stroke-linecap="round"/>
<path opacity="0.7" d="M78.8282 76.3729L53.8069 42.0525" stroke="#C09A35" stroke-linecap="round"/>
<path d="M78.8282 90.1011L114.573 55.7807" stroke="#C09A35" stroke-width="1.2" stroke-linecap="round"/>
<path opacity="0.7" d="M78.8282 72.9409L100.275 38.6205" stroke="#C09A35" stroke-linecap="round"/>
<path opacity="0.6" d="M39.509 66.0768C41.4832 66.0768 43.0835 64.5402 43.0835 62.6448C43.0835 60.7493 41.4832 59.2127 39.509 59.2127C37.5349 59.2127 35.9346 60.7493 35.9346 62.6448C35.9346 64.5402 37.5349 66.0768 39.509 66.0768Z" fill="#C09A35"/>
<path opacity="0.5" d="M53.8069 44.6266C55.2875 44.6266 56.4878 43.4741 56.4878 42.0525C56.4878 40.6309 55.2875 39.4785 53.8069 39.4785C52.3264 39.4785 51.1261 40.6309 51.1261 42.0525C51.1261 43.4741 52.3264 44.6266 53.8069 44.6266Z" fill="#C09A35"/>
<path opacity="0.6" d="M78.8281 76.3729C80.8023 76.3729 82.4026 74.8363 82.4026 72.9409C82.4026 71.0454 80.8023 69.5088 78.8281 69.5088C76.854 69.5088 75.2537 71.0454 75.2537 72.9409C75.2537 74.8363 76.854 76.3729 78.8281 76.3729Z" fill="#C09A35"/>
<path opacity="0.6" d="M114.573 59.2126C116.547 59.2126 118.147 57.6761 118.147 55.7806C118.147 53.8851 116.547 52.3485 114.573 52.3485C112.599 52.3485 110.998 53.8851 110.998 55.7806C110.998 57.6761 112.599 59.2126 114.573 59.2126Z" fill="#C09A35"/>
<path opacity="0.5" d="M100.275 41.1944C101.756 41.1944 102.956 40.042 102.956 38.6204C102.956 37.1988 101.756 36.0464 100.275 36.0464C98.7944 36.0464 97.5941 37.1988 97.5941 38.6204C97.5941 40.042 98.7944 41.1944 100.275 41.1944Z" fill="#C09A35"/>
</svg>
